<?xml version="1.0" encoding="utf-8"?>
<!-- Generator: Adobe Illustrator 16.0.4, SVG Export Plug-In . SVG Version: 6.00 Build 0)  -->
<!DOCTYPE svg PUBLIC "-//W3C//DTD SVG 1.1//EN" "http://www.w3.org/Graphics/SVG/1.1/DTD/svg11.dtd">
<svg version="1.1" id="Layer_1" xmlns="http://www.w3.org/2000/svg" xmlns:xlink="http://www.w3.org/1999/xlink" x="0px" y="0px"
	 width="1224px" height="792px" viewBox="0 0 1224 792" enable-background="new 0 0 1224 792" xml:space="preserve">
<path fill="#828282" d="M243.723,35.5h717v717h-717V35.5z M329.224,285.697h120.1v361.27h-120.1V285.697z M390.083,111.516
	c-41.099,0-67.938,27.018-67.938,62.428c0,34.662,26.037,62.405,66.342,62.405h0.773c41.89,0,67.943-27.743,67.943-62.405
	C456.423,138.534,431.151,111.516,390.083,111.516L390.083,111.516z M744.039,277.219c-63.71,0-92.234,35.035-108.205,59.626
	v-51.149H515.77c1.582,33.896,0,361.269,0,361.269h120.064V445.214c0-10.82,0.782-21.585,3.944-29.303
	c8.681-21.584,28.465-43.92,61.604-43.92c43.431,0,60.845,33.133,60.845,81.688v193.286H882.3V439.812
	C882.302,328.827,823.073,277.219,744.039,277.219z"/>
<rect id="rect11_1_" x="329.224" y="285.697" fill="#FFFFFF" width="120.1" height="361.27"/>
</svg>
