<?xml version="1.0" encoding="utf-8"?>
<!-- Generator: Adobe Illustrator 16.0.4, SVG Export Plug-In . SVG Version: 6.00 Build 0)  -->
<!DOCTYPE svg PUBLIC "-//W3C//DTD SVG 1.1//EN" "http://www.w3.org/Graphics/SVG/1.1/DTD/svg11.dtd">
<svg version="1.1" id="Layer_1" xmlns="http://www.w3.org/2000/svg" xmlns:xlink="http://www.w3.org/1999/xlink" x="0px" y="0px"
	 width="588.32px" height="182.605px" viewBox="0 0 588.32 182.605" enable-background="new 0 0 588.32 182.605"
	 xml:space="preserve">
<rect x="60.447" y="65.271" transform="matrix(-0.9948 -0.1022 0.1022 -0.9948 127.7449 151.7092)" fill="#C5D54C" width="14.622" height="14.624"/>
<rect x="74.599" y="96.311" transform="matrix(-0.9793 -0.2026 0.2026 -0.9793 141.1281 221.6905)" fill="#C5D54C" width="14.624" height="14.623"/>
<rect x="44.799" y="54.24" transform="matrix(-0.9948 -0.1022 0.1022 -0.9948 93.4114 123.4024)" fill="#C5D54C" width="10.137" height="10.136"/>
<rect x="24.724" y="42.688" transform="matrix(-0.9793 -0.2023 0.2023 -0.9793 49.3037 100.5545)" fill="#C5D54C" width="10.135" height="10.138"/>
<rect x="52.424" y="83.987" transform="matrix(-0.9948 0.1014 -0.1014 -0.9948 128.4193 176.0697)" fill="#C5D54C" width="14.622" height="14.622"/>
<linearGradient id="SVGID_1_" gradientUnits="userSpaceOnUse" x1="59.7378" y1="92.302" x2="588.3179" y2="92.302" gradientTransform="matrix(1 0 0 -1 0 183.606)">
	<stop  offset="0" style="stop-color:#CFDE4D"/>
	<stop  offset="1" style="stop-color:#39B54A"/>
</linearGradient>
<path fill="url(#SVGID_1_)" d="M291.624,0h-0.696h-35.825v28.806h-5.217V3.391h-34.261v11.36h-22.91l-1.122-11.015l-26.24,2.674
	l1.219,11.977l-17.514-3.622L145.38,32.55l-2.525-24.791l-26.24,2.674l2.673,26.24l3.967-0.404l-2.645,12.789l-10.601-2.191
	l-1.711-16.807L90.11,31.914l0.64,6.284l-12.042-2.49l2.636-12.748l-17.903-3.702l-3.703,17.904l13.439,2.778L70.54,52.688
	l17.904,3.703L91.23,42.92l0.731,7.181l11.172-1.138l-3.004,14.528l17.903,3.701l1.987-9.608l12.911,2.67l-4.8,23.212l19.821,4.099
	l-11.372,1.158l2.018,19.814l-14.215-2.94l2.02-19.648l-22.766-2.341l1.495-14.545l-18.187-1.869l-1.869,18.188l14.714,1.513
	l-2.322,22.596l24.558,2.523l-3.973,19.21l25.829,5.342l4.663-22.547l16.947-1.727l-2.672-26.241l-8.47,0.862l3.152-15.242
	l1.283,12.6l26.24-2.672l-1.2-11.784h21.087v12.62h16.841v20.349h-15.579L204.1,82.435l-26.241,2.672l2.674,26.242l24.088-2.454
	v16.585h-15.84l-1.443-14.172l-26.239,2.673l2.672,26.241l21.927-2.232v13.867h20.143v19.057h30.088v-30.088h-23.855v-3.78h26.809
	v-28.609h10.528l0.77,2.81l5.244-1.437l-5.007,30.308l34.231,5.653l5.655-34.231l-25.694-4.244l20.795-5.694l-6.998-25.555h12.519
	v70.042h-35.825v36.521h35.825h0.696h296.696V0H291.624z M144.715,35.758l-5.425-1.122l5.779-0.588L144.715,35.758z M231.059,56.058
	h-21.661v-12.62h-26.376v18.48l-0.668-6.562l-26.24,2.674l0.446,4.382l-11.295-2.336l3.8-18.375l20.48,4.234l2.839-13.729
	l19.621-1.998v10.919h26.377v-3.478h12.677V56.058z M256.102,71.756l-8.826,2.417H231.29V63.067h24.812V71.756z M290.927,39.521
	H265.32v-3h25.607V39.521z"/>
</svg>
